HIERARCHY
ROOT Hips
{
	OFFSET -3.958830 18.904000 13.208200
	CHANNELS 6 Xposition Yposition Zposition Zrotation Yrotation Xrotation 
	JOINT LHipJoint
	{
		OFFSET 0.000000 0.000000 0.000000
		CHANNELS 3 Zrotation Yrotation Xrotation
		JOINT LeftUpLeg
		{
			OFFSET 1.800000 -1.400000 0.085000
			CHANNELS 3 Zrotation Yrotation Xrotation
			JOINT LeftLeg
			{
				OFFSET 2.215000 -6.000000 0.000000
				CHANNELS 3 Zrotation Yrotation Xrotation
				JOINT LeftFoot
				{
					OFFSET 2.500000 -6.900000 0.000000
					CHANNELS 3 Zrotation Yrotation Xrotation
					JOINT LeftToeBase
					{
						OFFSET 0.200000 -0.500000 1.950000
						CHANNELS 3 Zrotation Yrotation Xrotation
						End Site
						{
							OFFSET 0.000000 0.000000 0.000000
						}
					}
				}
			}
		}
	}
	JOINT RHipJoint
	{
		OFFSET 0.000000 0.000000 0.000000
		CHANNELS 3 Zrotation Yrotation Xrotation
		JOINT RightUpLeg
		{
			OFFSET -1.800000 -1.400000 0.085000
			CHANNELS 3 Zrotation Yrotation Xrotation
			JOINT RightLeg
			{
				OFFSET -2.215000 -6.000000 0.000000
				CHANNELS 3 Zrotation Yrotation Xrotation
				JOINT RightFoot
				{
					OFFSET -2.500000 -6.900000 0.000000
					CHANNELS 3 Zrotation Yrotation Xrotation
					JOINT RightToeBase
					{
						OFFSET -0.200000 -0.500000 1.950000
						CHANNELS 3 Zrotation Yrotation Xrotation
						End Site
						{
							OFFSET 0.000000 0.000000 0.000000
						}
					}
				}
			}
		}
	}
	JOINT LowerBack
	{
		OFFSET 0.000000 0.000000 0.000000
		CHANNELS 3 Zrotation Yrotation Xrotation
		JOINT Spine
		{
			OFFSET -0.087000 1.940000 -0.288900
			CHANNELS 3 Zrotation Yrotation Xrotation
			JOINT Spine1
			{
				OFFSET 0.000000 1.950000 0.060000
				CHANNELS 3 Zrotation Yrotation Xrotation
				JOINT Neck
				{
					OFFSET 0.000000 0.000000 0.000000
					CHANNELS 3 Zrotation Yrotation Xrotation
					JOINT Neck1
					{
						OFFSET 0.000000 1.600000 0.340000
						CHANNELS 3 Zrotation Yrotation Xrotation
						JOINT Head
						{
							OFFSET 0.000000 1.667000 -0.240000
							CHANNELS 3 Zrotation Yrotation Xrotation
							End Site
							{
								OFFSET 0.000000 0.000000 0.000000
							}
						}
					}
				}
				JOINT LeftShoulder
				{
					OFFSET 0.000000 0.000000 0.000000
					CHANNELS 3 Zrotation Yrotation Xrotation
					JOINT LeftArm
					{
						OFFSET 2.700000 1.550000 -0.730000
						CHANNELS 3 Zrotation Yrotation Xrotation
						JOINT LeftForeArm
						{
							OFFSET 5.450000 0.000000 0.000000
							CHANNELS 3 Zrotation Yrotation Xrotation
							JOINT LeftHand
							{
								OFFSET 3.450000 0.000000 0.000000
								CHANNELS 3 Zrotation Yrotation Xrotation
								JOINT LeftHandIndex1
								{
									OFFSET 0.750000 0.000000 0.000000
									CHANNELS 3 Zrotation Yrotation Xrotation
									End Site
									{
										OFFSET 0.000000 0.000000 0.000000
									}
								}
							}
						}
					}
				}
				JOINT RightShoulder
				{
					OFFSET 0.000000 0.000000 0.000000
					CHANNELS 3 Zrotation Yrotation Xrotation
					JOINT RightArm
					{
						OFFSET -2.700000 1.550000 -0.730000
						CHANNELS 3 Zrotation Yrotation Xrotation
						JOINT RightForeArm
						{
							OFFSET -5.450000 0.000000 0.000000
							CHANNELS 3 Zrotation Yrotation Xrotation
							JOINT RightHand
							{
								OFFSET -3.450000 0.000000 0.000000
								CHANNELS 3 Zrotation Yrotation Xrotation
								JOINT RightHandIndex1
								{
									OFFSET -0.750000 0.000000 0.000000
									CHANNELS 3 Zrotation Yrotation Xrotation
									End Site
									{
										OFFSET 0.000000 0.000000 0.000000
									}
								}
							}
						}
					}
				}
			}
		}
	}
}
MOTION
Frames: 13
Frame Time: 0.016667
0.572770 17.005370 -1.346110 -1.424055 10.723785 -5.323260 -15.721979 13.359398 3.784323 0.547034 2.543459 7.827853 -10.870051 4.960958 -4.980041 0.398632 5.187433 3.003673 0.132420 0.003960 0.072990 17.820094 -9.708880 3.102163 -3.229745 2.095240 -25.612388 5.169091 -2.066971 1.000079 0.112013 -1.723352 3.806009 0.042430 0.202170 0.159990 -2.310619 -3.270279 -8.399941 -1.035158 -1.445076 15.143650 3.173090 -2.584818 6.218989 2.291246 1.328812 -14.289140 -0.797242 -1.293713 40.304465 -3.514440 0.182420 -1.638190 -12.094076 -16.525668 5.524381 1.658734 -7.646762 -0.703528 10.916079 -9.644354 -0.665645 -4.057762 2.770244 0.177780 0.169150 -0.034790 0.119250 8.220832 16.458793 10.812604 3.624459 3.068207 -1.205729 -11.650669 4.638400 -0.449540 2.571275 -1.251827 -0.091400 0.137680 0.036430 -0.081060 
0.572670 17.005010 -1.345650 -1.453044 10.703582 -5.381021 -15.721967 13.358276 3.784338 0.585568 2.543940 7.890836 -10.856986 4.962177 -4.995361 0.401317 5.194670 3.002306 0.135140 0.007400 0.073980 17.820932 -9.708567 3.099942 -3.212663 2.092172 -25.529350 5.188629 -2.068489 0.983107 0.110459 -1.730029 3.803373 0.044870 0.203210 0.161780 -2.311559 -3.269442 -8.396983 -0.996747 -1.432290 15.190940 3.169096 -2.574908 6.343702 2.299472 1.310103 -14.314703 -0.806593 -1.293971 40.183749 -3.514430 0.171490 -1.671760 -11.980896 -16.532623 5.541507 1.539808 -7.678070 -0.699613 11.009929 -9.621279 -0.677979 -4.059241 2.772413 0.175890 0.170390 -0.034630 0.120970 8.084510 16.500329 10.848412 3.733507 3.093337 -1.200488 -11.714514 4.630014 -0.459404 2.571059 -1.256414 -0.090160 0.137280 0.034560 -0.079770 
0.572760 17.004870 -1.345380 -1.495732 10.642847 -5.527477 -15.722233 13.355800 3.785613 0.639509 2.562147 8.052430 -10.843085 4.970250 -5.028840 0.407025 5.210972 2.997217 0.139040 0.014740 0.074090 17.822615 -9.709527 3.092878 -3.185740 2.077240 -25.353310 5.210860 -2.073660 0.970826 0.108083 -1.742460 3.798552 0.050120 0.204740 0.163310 -2.312842 -3.265963 -8.389106 -0.931983 -1.393121 15.301805 3.148845 -2.542447 6.640736 2.322119 1.270618 -14.366215 -0.827916 -1.290475 39.961901 -3.527240 0.160680 -1.774990 -11.720216 -16.545492 5.573384 1.249882 -7.783298 -0.691740 11.238662 -9.546499 -0.707482 -4.063653 2.775920 0.170870 0.172330 -0.034770 0.123240 7.765757 16.593069 10.923787 4.018176 3.197180 -1.192308 -11.891781 4.526837 -0.478937 2.571887 -1.264443 -0.087800 0.138200 0.033080 -0.077180 
0.572360 17.005050 -1.345880 -1.531185 10.556733 -5.782272 -15.722155 13.352218 3.788367 0.706690 2.597625 8.326626 -10.816496 4.985685 -5.069070 0.415543 5.238530 2.988570 0.144360 0.024290 0.075400 17.825113 -9.713141 3.081233 -3.178381 2.042868 -25.082795 5.253602 -2.086135 0.961289 0.104537 -1.763755 3.789366 0.057320 0.207410 0.166660 -2.315702 -3.257836 -8.377236 -0.866622 -1.328159 15.518357 3.071333 -2.483181 7.105372 2.356156 1.244144 -14.457010 -0.795951 -1.287580 39.644795 -3.527050 0.157400 -1.918380 -11.341608 -16.609976 5.622776 0.946338 -7.937370 -0.688686 11.534534 -9.403705 -0.747724 -4.072612 2.779166 0.163910 0.175980 -0.035260 0.124950 7.294394 16.752576 11.056113 4.537059 3.339514 -1.181461 -12.192580 4.321265 -0.507493 2.573886 -1.277823 -0.084470 0.138700 0.031510 -0.074030 
0.571400 17.005410 -1.346110 -1.556023 10.465914 -6.051250 -15.725701 13.351054 3.791028 0.772625 2.635301 8.615030 -10.791002 5.003134 -5.107834 0.422665 5.271376 2.977921 0.148330 0.031870 0.075540 17.825061 -9.711800 3.067952 -3.174326 2.003595 -24.782466 5.297434 -2.096802 0.924288 0.102093 -1.787690 3.779104 0.065320 0.211560 0.169980 -2.309194 -3.262380 -8.362192 -0.869500 -1.238037 15.735600 3.088197 -2.435791 7.672503 2.380574 1.184983 -14.591768 -0.815060 -1.256997 39.277198 -3.513890 0.150840 -2.055910 -10.863092 -16.701668 5.716507 0.481215 -8.096692 -0.667216 11.908260 -9.092720 -0.796748 -4.085176 2.781603 0.157200 0.180500 -0.036790 0.126600 6.747713 16.977123 11.220643 5.007528 3.517802 -1.157719 -12.426840 3.877960 -0.520205 2.581254 -1.289879 -0.083360 0.139920 0.031070 -0.071030 
0.570750 17.005770 -1.345010 -1.599810 10.373837 -6.258218 -15.726631 13.352614 3.793328 0.853806 2.660434 8.834029 -10.781637 5.022142 -5.126226 0.426136 5.297322 2.969313 0.149820 0.036530 0.074750 17.826114 -9.708863 3.061288 -3.145544 1.982115 -24.532427 5.345320 -2.103220 0.860738 0.100590 -1.805263 3.773426 0.070600 0.214410 0.169610 -2.308513 -3.271583 -8.356411 -0.794978 -1.207935 15.928074 3.058176 -2.415626 8.077787 2.406680 1.089861 -14.714276 -0.925054 -1.172134 39.024163 -3.523200 0.186810 -2.190830 -10.531821 -16.779075 5.817382 0.155857 -8.085525 -0.644653 12.148972 -8.824906 -0.825640 -4.094307 2.780378 0.153850 0.183450 -0.039270 0.125860 6.350187 17.192054 11.340049 5.272892 3.706906 -1.148204 -12.592479 3.481354 -0.524227 2.587298 -1.295427 -0.084200 0.142680 0.032630 -0.070400 
0.568630 17.005280 -1.342250 -1.640553 10.266317 -6.366381 -15.726481 13.351699 3.793421 0.941090 2.667957 8.958703 -10.807584 5.037858 -5.130198 0.426692 5.317601 2.962061 0.149240 0.038120 0.072110 17.827933 -9.705888 3.059369 -3.082651 1.987137 -24.391146 5.373264 -2.105355 0.819998 0.100908 -1.815573 3.770294 0.074360 0.217290 0.169700 -2.309944 -3.273519 -8.352782 -0.729393 -1.191156 16.042929 3.026768 -2.402181 8.314767 2.436127 1.028537 -14.787960 -0.972905 -1.078430 38.792807 -3.557530 0.270260 -2.269170 -10.361469 -16.821188 5.896842 0.004309 -7.952462 -0.627602 12.270083 -8.678320 -0.838136 -4.101423 2.781223 0.151190 0.186860 -0.042160 0.125380 6.110530 17.331959 11.393191 5.361256 3.902992 -1.141003 -12.682193 3.173096 -0.524877 2.591394 -1.298980 -0.085950 0.144240 0.035410 -0.070580 
0.566170 17.004460 -1.337070 -1.690102 10.154228 -6.367673 -15.724870 13.349373 3.791414 1.028401 2.656090 8.985928 -10.834167 5.046706 -5.121842 0.429687 5.323602 2.959750 0.148960 0.038210 0.071900 17.830009 -9.701818 3.065678 -3.011448 2.015060 -24.342001 5.435536 -2.102765 0.752175 0.100467 -1.818998 3.770035 0.073230 0.216390 0.169880 -2.313756 -3.270862 -8.356519 -0.655823 -1.189928 16.055848 3.004213 -2.393395 8.373239 2.458699 0.972980 -14.854153 -1.046304 -0.999769 38.714052 -3.608880 0.353130 -2.260500 -10.322918 -16.850228 5.973169 -0.076305 -7.731971 -0.624250 12.329894 -8.634200 -0.839065 -4.102442 2.784727 0.149330 0.187540 -0.043590 0.123760 6.023404 17.431277 11.423311 5.313989 4.005872 -1.128889 -12.649978 2.990874 -0.515831 2.596007 -1.299277 -0.084100 0.141900 0.036340 -0.071280 
0.563530 17.004560 -1.333900 -1.725542 10.037680 -6.513537 -15.725401 13.348450 3.790351 1.146021 2.664709 9.146570 -10.884921 5.073487 -5.098710 0.434471 5.348939 2.950126 0.149010 0.041540 0.070740 17.831554 -9.698564 3.062155 -2.956522 2.008341 -24.134959 5.473967 -2.103679 0.682728 0.099558 -1.833525 3.763145 0.078030 0.217810 0.170570 -2.313488 -3.274103 -8.350025 -0.618852 -1.163467 16.182764 2.989609 -2.380747 8.699585 2.477987 0.897245 -14.940396 -1.118163 -0.905808 38.476320 -3.626170 0.425140 -2.335010 -10.069144 -16.894763 6.060211 -0.332818 -7.638759 -0.618009 12.554869 -8.508221 -0.862316 -4.108262 2.788506 0.144560 0.189930 -0.044770 0.123040 5.722900 17.590628 11.495362 5.492016 4.208675 -1.113228 -12.742320 2.668445 -0.517042 2.603889 -1.304587 -0.084330 0.142060 0.037350 -0.069940 
0.561110 17.004420 -1.329170 -1.780317 9.942516 -6.545261 -15.724972 13.347907 3.786856 1.259282 2.649297 9.186541 -10.927276 5.091916 -5.052835 0.432914 5.364155 2.945513 0.149760 0.040100 0.072270 17.832686 -9.693371 3.067237 -2.887342 2.026618 -24.021784 5.532172 -2.100547 0.573160 0.097832 -1.841351 3.761565 0.078900 0.218700 0.171680 -2.314274 -3.276962 -8.351892 -0.550346 -1.161467 16.209411 2.975488 -2.374434 8.802364 2.505713 0.849949 -14.989009 -1.179459 -0.835766 38.418404 -3.666130 0.485310 -2.370490 -10.012795 -16.919541 6.112524 -0.474258 -7.532938 -0.620490 12.725909 -8.405022 -0.880754 -4.111442 2.788636 0.146650 0.191180 -0.045440 0.123040 5.610372 17.677807 11.522683 5.486598 4.327255 -1.101513 -12.704731 2.480319 -0.507232 2.606415 -1.303719 -0.086460 0.142730 0.038140 -0.072000 
0.558320 17.005000 -1.323940 -1.831778 9.842055 -6.533838 -15.722482 13.350407 3.784633 1.357386 2.625038 9.170943 -10.966256 5.107629 -4.985538 0.434967 5.368478 2.944993 0.153570 0.039590 0.076340 17.833737 -9.690585 3.077105 -2.803602 2.052469 -23.952668 5.570263 -2.092220 0.459606 0.093487 -1.841366 3.762744 0.076430 0.216300 0.173690 -2.318384 -3.280197 -8.363050 -0.466836 -1.175637 16.242363 2.945234 -2.359421 8.728750 2.511403 0.793854 -15.043997 -1.296631 -0.775890 38.534578 -3.608680 0.478360 -2.372470 -10.110937 -16.957993 6.158359 -0.458026 -7.348764 -0.633595 12.777578 -8.352777 -0.883202 -4.107336 2.790769 0.151340 0.187840 -0.042810 0.124710 5.699760 17.766571 11.547955 5.300208 4.323329 -1.093405 -12.551450 2.389831 -0.487271 2.610148 -1.299643 -0.084720 0.140780 0.035630 -0.073140 
0.555850 17.005460 -1.318360 -1.885483 9.745431 -6.497997 -15.716402 13.351892 3.783863 1.432132 2.604123 9.140410 -10.978871 5.115266 -4.949192 0.439695 5.362963 2.946188 0.154310 0.038980 0.076740 17.837485 -9.690339 3.088809 -2.718796 2.079045 -23.916708 5.604909 -2.082574 0.360078 0.091012 -1.837944 3.764923 0.072080 0.212690 0.173060 -2.332043 -3.278507 -8.378832 -0.310835 -1.231177 16.252189 2.840778 -2.350821 8.605590 2.502924 0.710410 -15.106127 -1.487289 -0.698494 38.719526 -3.484770 0.439840 -2.326060 -10.243374 -17.004591 6.207194 -0.397372 -7.192661 -0.638778 12.755114 -8.138698 -0.868770 -4.104583 2.791496 0.153430 0.183050 -0.041000 0.123890 5.850199 17.859312 11.575347 5.071138 4.273580 -1.078993 -12.348609 2.329049 -0.462534 2.616243 -1.292902 -0.081030 0.137490 0.034420 -0.072490 
0.553240 17.005120 -1.314600 -1.897268 9.647555 -6.555920 -15.712576 13.346654 3.781523 1.469088 2.615380 9.231059 -10.955191 5.123435 -4.949961 0.446185 5.367901 2.944213 0.151920 0.041300 0.071090 17.842357 -9.690503 3.091114 -2.680048 2.074223 -23.797301 5.648908 -2.077756 0.262015 0.090682 -1.847957 3.760928 0.073100 0.215560 0.171600 -2.343350 -3.268309 -8.377715 -0.232298 -1.234069 16.293546 2.739826 -2.323249 8.787157 2.492285 0.650798 -15.159641 -1.571614 -0.627106 38.616691 -3.368190 0.427230 -2.296470 -10.131072 -17.057931 6.246396 -0.465309 -7.243007 -0.634291 12.852564 -7.813799 -0.868720 -4.112607 2.793144 0.146610 0.184050 -0.043540 0.123560 5.752094 17.966664 11.633400 5.120872 4.321773 -1.047468 -12.291881 2.156201 -0.455076 2.622904 -1.293948 -0.078850 0.137770 0.036260 -0.068290 
